<?xml version="1.0" standalone="no"?>
<!DOCTYPE svg PUBLIC "-//W3C//DTD SVG 1.1//EN" "http://www.w3.org/Graphics/SVG/1.1/DTD/svg11.dtd" >
<!--
2013-9-30: Created.
-->
<svg>
<metadata>
Created by iconfont
</metadata>
<defs>

<font id="iconfont" horiz-adv-x="1024" >
  <font-face
    font-family="iconfont"
    font-weight="500"
    font-stretch="normal"
    units-per-em="1024"
    ascent="896"
    descent="-128"
  />
    <missing-glyph />
    
    <glyph glyph-name="_zhengque-xian" unicode="&#58955;" d="M512 839.11111147C261.68888853 839.11111147 56.88888853 634.31111147 56.88888853 384s204.8-455.11111147 455.11111147-455.11111147 455.11111147 204.8 455.11111147 455.11111147S762.31111147 839.11111147 512 839.11111147z m0-841.95555627c-213.90222187 0-386.8444448 172.94222187-386.8444448 386.8444448S298.09777813 770.8444448 512 770.8444448s386.8444448-172.94222187 386.8444448-386.8444448-172.94222187-386.8444448-386.8444448-386.8444448zM753.20888853 484.1244448l-273.06666666-273.06666667c-13.65333333-13.65333333-36.40888853-13.65333333-50.06222187 0-13.65333333 13.65333333-13.65333333 36.40888853 0 50.06222187l273.06666667 273.06666667c13.65333333 13.65333333 36.40888853 13.65333333 50.06222186 0 9.10222187-13.65333333 9.10222187-36.40888853 0-50.06222187zM430.08 211.05777812999997L284.4444448 356.69333333c-13.65333333 13.65333333-13.65333333 36.40888853 0 50.06222187 13.65333333 13.65333333 36.40888853 13.65333333 50.06222187 0l145.6355552-145.6355552c13.65333333-13.65333333 13.65333333-36.40888853 0-50.06222187-18.2044448-13.65333333-36.40888853-13.65333333-50.06222187 0z"  horiz-adv-x="1024" />

    
    <glyph glyph-name="cuowu" unicode="&#58888;" d="M333.83272719 804.34909125c233.58545437 98.4 502.86545438-11.34545437 601.30909125-244.93090969a459.18545438 459.18545438 0 0 0-244.93090969-601.26545437c-233.76-98.4-502.90909125 11.34545437-601.30909031 244.93090875-98.4 233.58545437 11.34545437 502.86545438 244.93090875 601.26545531z m445.30909125-157.39636406a375.84 375.84 0 1 1 0-531.49090875 373.39636406 373.39636406 0 0 1 110.05090875 265.74545437 375.84 375.84 0 0 1-110.05090875 265.74545438z m-417.6-85.09090875a40.8 40.8 0 0 0 57.6-5.67272719l93.07636312-110.92363688 93.03272719 110.96727282a40.84363594 40.84363594 0 0 0 57.6 5.01818156c17.36727281-14.53090875 19.63636406-40.40727281 5.23636406-57.6l-102.41454562-122.00727281 102.28363687-122.00727188a40.88727281 40.88727281 0 0 0-62.70545531-52.58181843l-93.03272719 110.96727281-93.07636312-110.96727281-0.61090969-0.69818157a40.97454562 40.97454562 0 0 0-62.09454469 53.28l102.37090875 121.92L356.52363594 503.56363594a40.8 40.8 0 0 0 5.0181825 58.2981825z"  horiz-adv-x="1024" />

    
    <glyph glyph-name="Group" unicode="&#58906;" d="M459.73504 39.936000000000035h110.34624v-35.10272h-110.34624V39.936000000000035zM749.38368 875.52H280.45312C252.86656 875.52 225.28 854.44608 225.28 826.3679999999999v-884.736c0-28.07808 20.6848-49.152 48.27136-49.152h475.83232c27.58656 0 48.27136 21.07392 48.27136 49.152V826.3679999999999c6.88128 28.07808-20.6848 49.152-48.27136 49.152z m13.78304-933.888c0-7.02464-6.90176-14.04928-13.78304-14.04928H280.45312c-6.90176 0-13.80352 7.02464-13.80352 14.04928v168.52992H770.048V-58.36800000000005h-6.88128z m0 203.63264H266.6496V728.064H770.048v-582.79936h-6.88128z m0 617.90208H266.6496V826.3679999999999c0 7.02464 6.90176 14.04928 13.80352 14.04928h475.81184c6.90176 0 13.80352-7.02464 13.80352-14.04928v-63.20128h-6.90176z"  horiz-adv-x="1024" />

    
    <glyph glyph-name="mima" unicode="&#58921;" d="M756.363636 535.272727h-46.545454v69.818182a192.465455 192.465455 0 0 1-197.818182 186.181818 192.465455 192.465455 0 0 1-197.818182-186.181818v-69.818182h-46.545454v69.818182A239.010909 239.010909 0 0 0 512 837.818182a239.010909 239.010909 0 0 0 244.363636-232.727273zM829.905455-69.81818199999998H194.094545A101.236364 101.236364 0 0 0 93.090909 31.185455000000047V434.269091a101.236364 101.236364 0 0 0 101.003636 101.003636h635.81091A101.236364 101.236364 0 0 0 930.909091 434.269091v-403.083636a101.236364 101.236364 0 0 0-101.003636-101.003637z m-635.81091 558.545455A54.458182 54.458182 0 0 1 139.636364 434.269091v-403.083636a54.458182 54.458182 0 0 1 54.458181-54.458182h635.81091A54.458182 54.458182 0 0 1 884.363636 31.185455000000047V434.269091a54.458182 54.458182 0 0 1-54.458181 54.458182zM512 139.63636399999996a128 128 0 1 0 128 128 128.232727 128.232727 0 0 0-128-128z m0 209.454545a81.454545 81.454545 0 1 1 81.454545-81.454545 81.454545 81.454545 0 0 1-81.454545 81.454545zM512 69.81818199999998a23.272727 23.272727 0 0 0-23.272727 23.272727v69.818182a23.272727 23.272727 0 0 0 46.545454 0v-69.818182a23.272727 23.272727 0 0 0-23.272727-23.272727z"  horiz-adv-x="1024" />

    
    <glyph glyph-name="mima1" unicode="&#58893;" d="M807.784661 525.347057H268.069992V621.102885a229.080929 229.080929 0 0 0 454.038401 26.573388 23.366255 23.366255 0 0 1 25.198902-20.159122 22.908093 22.908093 0 0 1 20.159122 25.198902A274.897115 274.897115 0 0 1 222.253806 621.102885v-95.755828h-7.788752A114.998626 114.998626 0 0 1 99.466428 410.34843v-423.341557a114.998626 114.998626 0 0 1 114.998626-114.998626h593.319607A114.998626 114.998626 0 0 1 924.157773-12.993126999999959V410.34843a114.998626 114.998626 0 0 1-116.373112 114.998627zM878.341587-12.993126999999959a69.182441 69.182441 0 0 0-69.182441-69.18244H214.465054A69.182441 69.182441 0 0 0 145.282614-12.993126999999959V410.34843a69.182441 69.182441 0 0 0 69.18244 69.182441h593.319607A69.182441 69.182441 0 0 0 878.341587 410.34843zM494.860112 297.64061300000003a22.908093 22.908093 0 0 1-22.908093-22.908093v-186.471876a22.908093 22.908093 0 0 1 45.816185 0v186.471876a22.908093 22.908093 0 0 1-22.908092 22.908093z"  horiz-adv-x="1024" />

    
    <glyph glyph-name="xinxi" unicode="&#59397;" d="M191.825 740.589h639.133c31.777 0 60.641-12.979 81.549-33.885 20.908-20.908 33.886-49.78 33.886-81.547v-386.981c0-31.773-12.978-60.642-33.886-81.55s-49.771-33.881-81.549-33.881H617.095c-51.358-65.264-86.005-97.265-115.505-96.842-34.341 0.48-51.522 33.026-64.004 96.842h-245.76c-31.77 0-60.641 12.973-81.547 33.881-20.908 20.908-33.885 49.776-33.885 81.55v386.98c0 31.767 12.977 60.639 33.885 81.547 20.905 20.907 49.776 33.886 81.546 33.886zM321.3 498.705h4.778c26.955 0 48.999-22.043 48.999-48.999v-0.006c0-26.955-22.043-49.005-48.999-49.005H321.3c-26.955 0-48.999 22.05-48.999 49.005v0.006c0 26.955 22.044 48.999 48.999 48.999z m370.743 0h4.777c26.956 0 48.999-22.043 48.999-48.999v-0.006c0-26.955-22.043-49.005-48.999-49.005h-4.777c-26.955 0-48.998 22.05-48.998 49.005v0.006c0 26.955 22.043 48.999 48.998 48.999z m-188.393 0h4.779c26.953 0 48.997-22.043 48.997-48.999v-0.006c0-26.955-22.044-49.005-48.997-49.005h-4.779c-26.953 0-48.999 22.05-48.999 49.005v0.006c0 26.955 22.046 48.999 48.999 48.999z m327.308 190.478H191.825c-17.576 0-33.59-7.215-45.2-18.827-11.614-11.612-18.827-27.626-18.827-45.2v-386.981c0-17.58 7.213-33.589 18.827-45.202 11.61-11.614 27.625-18.825 45.2-18.825h288.948l3.555-21.583c8.232-49.979 13.602-75.405 17.866-75.462 11.309-0.163 36.949 28.559 82.164 87.002l7.764 10.043h238.836c17.583 0 33.592 7.211 45.202 18.825 11.613 11.613 18.828 27.622 18.828 45.202V625.156c0 17.574-7.215 33.588-18.828 45.2-11.61 11.612-27.619 18.827-45.202 18.827z"  horiz-adv-x="1024" />

    
    <glyph glyph-name="zhanghao" unicode="&#58943;" d="M512.1 764.98c-73.26 0-132.64-60.13-132.64-134.3 0-74.17 59.38-134.3 132.64-134.3 73.25 0 132.64 60.13 132.64 134.3 0 74.17-59.39 134.3-132.64 134.3z m0 67.15c109.88 0 198.96-90.19 198.96-201.45 0-111.26-89.08-201.45-198.96-201.45-109.88 0-198.97 90.19-198.97 201.45 0 111.26 89.09 201.45 198.97 201.45z m176.86-514.82H335.24c-83.4 0-151.8-66.92-154.66-151.31l-0.09-5.37v-134.3c0-11.35 8.39-20.9 19.52-22.23l2.59-0.16h619c11.21 0 20.64 8.5 21.95 19.77l0.16 2.62v134.3c0 84.44-66.09 153.7-149.44 156.59l-5.31 0.09z m0 67.15c120.04 0 217.71-96.85 220.98-217.56l0.09-6.27v-134.3c0-47.71-36.95-87.03-84.01-89.42l-4.42-0.11h-619c-47.12 0-85.96 37.41-88.32 85.06l-0.11 4.47v134.3c0 121.54 95.66 220.43 214.88 223.74l6.19 0.09h353.72z"  horiz-adv-x="1024" />

    
    <glyph glyph-name="saoma" unicode="&#58965;" d="M192 457.6c12.8 0 24 11.2 24 24V640c0 22.4 17.6 40 40 40h158.4c12.8 0 24 11.2 24 24s-11.2 24-24 24H256c-48 0-88-40-88-88v-158.4c0-12.8 11.2-24 24-24zM768 728H609.6c-12.8 0-24-11.2-24-24s11.2-24 24-24H768c22.4 0 40-17.6 40-40v-158.4c0-12.8 11.2-24 24-24s24 11.2 24 24V640c0 48-40 88-88 88z m64-417.6c-12.8 0-24-11.2-24-24V128c0-22.4-17.6-40-40-40H609.6c-12.8 0-24-11.2-24-24s11.2-24 24-24H768c48 0 88 40 88 88V286.4c0 12.8-11.2 24-24 24zM414.4 88H256c-22.4 0-40 17.6-40 40V286.4c0 12.8-11.2 24-24 24s-24-11.2-24-24V128c0-48 40-88 88-88h158.4c12.8 0 24 11.2 24 24s-11.2 24-24 24zM832 408H192c-12.8 0-24-11.2-24-24s11.2-24 24-24h640c12.8 0 24 11.2 24 24s-11.2 24-24 24z"  horiz-adv-x="1024" />

    
    <glyph glyph-name="shouji" unicode="&#58887;" d="M724.350707 832.646465H297.787475C253.310707 832.646465 217.212121 796.444444 217.212121 752.071111v-736.245656c0-44.476768 36.20202-80.575354 80.575354-80.575354h426.563232c44.476768 0 80.575354 36.20202 80.575354 80.575354V752.071111c0 44.476768-36.098586 80.575354-80.575354 80.575354zM297.787475 791.272727h426.563232c21.617778 0 39.201616-17.583838 39.201616-39.201616V716.282828H258.585859v35.788283C258.585859 773.688889 276.169697 791.272727 297.787475 791.272727zM258.585859 674.909091h505.069899v-527.72202H258.585859V674.909091z m465.764848-698.285253H297.787475c-21.617778 0-39.201616 17.583838-39.201616 39.201617v89.987878h505.069899v-89.987878c-0.103434-21.617778-17.687273-39.201616-39.305051-39.201617z m0 0M435.975758 746.278788h150.083232c8.274747 0 14.99798 6.723232 14.99798 14.99798 0 8.274747-6.723232 14.99798-14.99798 14.997979H435.975758c-8.274747 0-14.99798-6.723232-14.99798-14.997979 0-8.274747 6.723232-14.99798 14.99798-14.99798z m0 0M457.490101 40.339394c0-19.135354 10.214141-36.822626 26.789495-46.403232 16.575354-9.567677 37.003636-9.567677 53.57899 0a53.575111 53.575111 0 0 1 26.789495 46.403232c0 29.595152-23.983838 53.57899-53.57899 53.57899-29.595152 0-53.57899-23.983838-53.57899-53.57899z m0 0"  horiz-adv-x="1024" />

    
    <glyph glyph-name="xiangxia" unicode="&#58880;" d="M745.33609104 508.09064463q18.90152694 0 30.63350916-7.16954467t15.64264298-18.90152694 0-26.39696002-16.94619656-29.00406719q-52.79392005-58.65991118-101.67717932-114.71271513t-94.50763465-104.93606329q-12.38375903-13.03553581-29.00406718-20.20508053t-34.21828152-7.4954331-33.89239313 5.54010274-27.37462519 18.24975012q-25.41929482 28.02640199-52.79392004 57.35635756l-56.05280399 58.6599112q-27.37462518 29.32995559-54.42336202 57.68224594t-50.51270128 55.07513883q-11.08020544 12.38375903-14.33908938 25.74518321t0.65177679 24.44162965 14.99086615 18.24975015 28.67817882 7.16954468q22.81218768 0 62.89646029 0.32588841t87.66397834 0.32588838l97.76651859 0 95.81118823 0 80.16854524 0 50.83858967 0z"  horiz-adv-x="1024" />

    
    <glyph glyph-name="muying" unicode="&#58905;" d="M143.167488 330.656512l0-396.766208c0-44.96384 36.507648-81.544192 81.400832-81.544192l575.369216 0c35.831808 0 67.134464 23.254016 77.724672 57.085952l3.81952 0L881.481728 330.656512c0 40.736768-30.145536 74.484736-69.30432 80.388096 16.192512 20.892672 25.928704 47.013888 25.928704 75.424768l0 8.385536c0 68.062208-55.425024 123.425792-123.53536 123.425792L583.784448 618.280704c-1.987584 0-3.602432 1.626112-3.602432 3.639296l0 52.62848c0 39.928832-32.47104 72.41216-72.399872 72.41216s-72.41216-32.483328-72.41216-72.41216l0-52.62848c0-2.01216-1.591296-3.639296-3.542016-3.639296L300.83584 618.280704c-68.122624 0-123.534336-55.36256-123.534336-123.486208l0.084992-8.686592c0-28.98944 10.157056-55.616512 27.036672-76.67712C169.265152 400.429824 143.167488 368.573184 143.167488 330.656512zM300.83584 569.387776l130.993152 0c28.928 0 52.458496 23.56736 52.458496 52.532224l0 52.62848c0 12.952576 10.54208 23.494656 23.494656 23.494656 12.940288 0 23.482368-10.54208 23.482368-23.494656l0-52.62848c0-28.964864 23.556096-52.532224 52.519936-52.532224l130.788352 0c41.146368 0 74.616832-33.434624 74.616832-74.532864l0-8.385536c0-39.857152-31.44704-72.41216-70.820864-74.412032L297.100288 412.057344c-39.36256 1.999872-70.797312 34.567168-70.797312 74.483712l-0.096256 8.313856C226.20672 535.953152 259.689472 569.387776 300.83584 569.387776zM300.908544 362.947328l413.664256 0c1.289216 0 2.530304 0.155648 3.807232 0.192512l81.629184 0c17.952768 0 32.556032-14.567424 32.556032-32.484352l-0.07168-396.766208c0-17.97632-14.604288-32.625664-32.555008-32.625664L224.56832-98.736384c-17.916928 0-32.483328 14.650368-32.483328 32.625664L192.084992 330.656512c0 17.916928 14.567424 32.484352 32.483328 32.484352l72.520704 0C298.365952 363.102976 299.606016 362.947328 300.908544 362.947328zM247.822336 216.091392l159.162368 0c10.108928 0 18.289664 8.170496 18.289664 18.289664 0 10.097664-8.180736 18.28352-18.289664 18.28352L247.822336 252.664576c-10.09664 0-18.289664-8.185856-18.289664-18.28352C229.532672 224.261888 237.725696 216.091392 247.822336 216.091392zM247.822336 3.845888l159.162368 0c10.108928 0 18.289664 8.192 18.289664 18.287616s-8.180736 18.289664-18.289664 18.289664L247.822336 40.423168c-10.09664 0-18.289664-8.194048-18.289664-18.289664S237.725696 3.845888 247.822336 3.845888zM247.822336 109.970176l268.936192 0c10.108928 0 18.289664 8.192 18.289664 18.287616 0 10.097664-8.180736 18.291712-18.289664 18.291712L247.822336 146.549504c-10.09664 0-18.289664-8.194048-18.289664-18.291712C229.532672 118.162176 237.725696 109.970176 247.822336 109.970176z"  horiz-adv-x="1024" />

    
    <glyph glyph-name="yundong" unicode="&#58881;" d="M1004.562432 246.573056c-1.7408 11.563008-5.618688 37.476352-17.123328 56.046592 5.21728 24.267776 6.029312 67.11296-15.742976 138.124288 5.76 28.35968 11.705344 108.589056-81.79712 178.110464-4.862976 4.158464-13.874176 9.82528-26.97728 9.82528-34.233344 0-58.387456-38.139904-73.571328-66.828288-6.23104-11.762688-11.706368-11.762688-14.98624-11.762688-13.929472 0-34.605056 11.492352-61.437952 34.161664-1.85344 1.568768-3.477504 2.929664-5.018624 4.120576-0.297984 0.369664-0.641024 0.78336-1.010688 1.217536-12.376064 14.900224-45.267968 54.473728-92.40576 54.473728-23.653376 0-46.024704-9.92256-66.485248-29.493248-62.850048-60.132352-211.616768-178.459648-287.141888-192.959488-19.904512-3.8144-35.060736-7.186432-54.807552-11.599872-15.440896-3.442688-33.762304-7.527424-59.584512-12.981248C81.441792 383.364096 26.805248 368.436224 17.009664 324.2496c-1.169408-5.118976-1.910784-10.51648-2.182144-15.978496-2.793472-54.23616 34.404352-126.759936 227.301376-164.513792 8.269824-2.060288 60.581888-14.11584 150.094848-14.11584 55.50592 0 114.318336 4.62848 173.546496 13.581312 0.812032 0.086016 81.783808 8.51968 170.227712 8.51968 31.136768 0 59.738112-1.042432 85.016576-3.101696l2.054144-0.162816 2.05312 0.119808c30.413824 1.816576 132.3008 11.07968 166.962176 53.854208C1002.636288 215.453696 1006.942208 230.703104 1004.562432 246.573056zM158.505984 339.883008c26.133504 5.51936 44.655616 9.645056 60.26752 13.1328 19.121152 4.27008 33.792 7.539712 53.083136 11.236352C356.939776 380.587008 497.030144 489.571328 569.008128 554.423296c-0.01024-0.387072-0.028672-0.77312-0.028672-1.163264 0-24.593408 20.004864-44.599296 44.599296-44.599296 24.595456 0 44.599296 20.005888 44.599296 44.599296 0 1.252352-0.063488 2.48832-0.165888 3.714048 1.55136-1.798144 2.8928-3.410944 3.97312-4.7104 3.321856-4.000768 6.516736-7.842816 11.035648-10.752 0.6144-0.505856 1.353728-1.138688 2.224128-1.880064 15.525888-13.111296 56.774656-47.942656 99.121152-47.942656 28.316672 0 51.970048 15.212544 66.599936 42.845184 9.48224 17.91488 16.68096 27.268096 21.11488 32 69.748736-56.368128 52.383744-115.017728 51.700736-117.228544l-3.167232-9.182208 2.965504-9.24672c10.800128-33.637376 15.648768-59.05408 17.472512-77.74208-14.193664-1.931264-38.393856-4.450304-76.541952-6.280192-36.586496-1.718272-68.867072-10.635264-109.71648-21.92896-50.342912-13.90592-118.657024-32.77824-234.529792-49.69472-17.779712 12.434432-53.481472 30.127104-97.824768 14.178304-10.093568-3.628032-19.617792-7.676928-29.285376-11.805696-33.476608-14.307328-65.143808-27.759616-134.181888-24.885248-22.499328 0.362496-88.799232 5.537792-125.028352 24.98048-8.225792 4.320256-32.694272 18.791424-47.066112 33.732608-0.54784 0.56832-1.052672 1.108992-1.528832 1.63328C80.436224 318.188544 98.568192 327.286784 158.505984 339.883008zM823.627776 207.020032c-26.304512 2.075648-55.778304 3.122176-87.627776 3.122176-91.652096 0-172.949504-8.482816-177.642496-9.010176-57.645056-8.682496-113.537024-13.088768-166.132736-13.088768-44.940288 0-79.593472 3.265536-102.703104 6.4512 54.669312 2.983936 87.22432 16.869376 116.575232 29.408256 8.626176 3.678208 17.108992 7.320576 26.105856 10.559488 20.675584 7.435264 37.769216-2.061312 44.983296-7.243776l0.699392-1.717248 4.491264-2.9952 7.94112-9.090048 15.640576 2.203648c127.239168 17.8944 200.72448 38.1952 254.37696 53.016576 40.265728 11.12064 66.854912 18.471936 96.941056 19.892224 22.5792 1.079296 40.758272 2.408448 55.26528 3.76832l-40.737792-44.177408 69.951488 14.050304c1.496064-5.039104 3.236864-12.4672 4.8896-23.166976C937.678848 225.90464 879.248384 210.67776 823.627776 207.020032z"  horiz-adv-x="1024" />

    
    <glyph glyph-name="qian" unicode="&#58962;" d="M928.045089 388.110757c27.492144 18.240433 29.435403 34.236755 29.435403 58.337663L957.480492 591.061029c0 46.619784-37.895075 84.467787-84.429925 84.467787L149.901567 675.528815c-46.529733 0-84.424808-37.848003-84.424808-84.467787l0-144.611585c0-24.101931 2.292206-43.709501 31.109532-59.219753 19.650549-9.252735 65.299215-35.867906 65.299215-85.481883 0-56.357566-33.486672-74.820056-62.568011-84.688821l-2.641153-1.231037c-28.200272-17.627473-31.198559-46.882773-31.198559-58.648748l0-144.56963c0-46.571688 37.895075-84.509742 84.424808-84.509742l723.149001 0c46.534849 0 84.429925 37.938054 84.429925 84.509742L957.481516 157.178177c0 31.241538-8.638751 42.786479-30.671557 59.087747-49.703005 25.559119-65.741283 46.444798-65.741283 85.481883C861.067652 340.920992 875.964944 360.175521 928.045089 388.110757zM668.251182 313.908778c0-13.350053-10.840906-24.233937-24.149003-24.233937l-96.318696 0 0-23.880897 96.318696 0c13.308097 0 24.149003-10.883885 24.149003-24.233937l0-24.059975c0-13.350053-10.840906-24.323988-24.149003-24.323988l-96.318696 0 0-72.130807c0-13.393032-10.840906-24.187889-24.233937-24.187889l-24.14491 0c-13.397125 0-24.239054 10.794857-24.239054 24.187889l0 72.130807-96.318696 0c-13.302981 0-24.14491 10.973936-24.14491 24.323988l0 24.059975c0 13.350053 10.841929 24.233937 24.14491 24.233937l96.318696 0 0 23.880897-96.318696 0c-13.302981 0-24.14491 10.883885-24.14491 24.233937l0 24.058952c0 13.350053 10.841929 24.234961 24.14491 24.234961l63.364143 0-80.110549 85.962837c-8.459672 9.388834-8.459672 24.016996 0 33.311687l15.335267 16.703427c8.459672 9.162684 24.852014 9.337669 33.311687 0l100.638071-107.999736 100.638071 108.083647c8.375761 9.1678 24.941042 9.1678 33.311687-0.084934l15.510252-16.835434c8.459672-9.384741 8.459672-24.101931 0-33.396621L581.006142 362.202691l63.096037 0c13.308097 0 24.149003-10.883885 24.149003-24.234961L668.251182 313.908778z"  horiz-adv-x="1024" />

    
    <glyph glyph-name="nvzhuang" unicode="&#58895;" d="M881.436444-147.772444c-57.685333-4.664889-117.873778 25.998222-179.143111 22.414222-61.212444-3.640889-85.219556-65.763556-156.728889-67.185778-71.566222-1.365333-183.523556 20.821333-201.500444 44.771556-3.299556 7.452444-9.443556 49.095111 44.771556 22.414222 0.910222 0.796444 59.107556-24.632889 134.371556-22.414222 75.207111 2.275556 91.648 53.134222 156.728889 67.185778 65.080889 14.051556 122.823111-26.624 179.143111-22.414222 37.319111 2.787556 60.017778 38.513778 67.185778 44.771556-10.638222 150.641778-157.184 274.830222-179.143111 291.043556-14.961778 11.093333-72.021333 38.912-106.780444 97.792-30.094222-15.36-93.013333-30.947556-139.548444-30.606222C456.135111 300.341333 403.569778 314.449778 370.972444 328.956444c-16.782222-34.360889-46.478222-58.197333-94.094222-96.142222-50.176-39.936-177.208889-176.981333-179.655111-288.768 1.820444-9.898667 22.243556-36.750222 67.697778-24.689778 30.606222-7.736889 25.031111-40.789333 0-44.771556-65.080889-10.24-111.957333 25.144889-111.957333 44.771556 0 171.747556 137.386667 294.115556 179.143111 335.872 41.756444 41.699556 111.957333 73.784889 111.957333 156.728889 0 67.356444-89.543111 245.304889-89.543111 335.872 0 0.512 156.728889 44.771556 156.728889 44.771556C434.460444 751.299556 456.817778 703.057778 500.792889 703.057778c43.975111 0 67.015111 45.795556 94.890667 89.543111 0 0 151.438222-43.52 151.438222-44.771556 0-109.681778-89.543111-271.815111-89.543111-335.872 0-77.880889 87.096889-119.182222 134.371556-156.728889 47.274667-37.546667 179.143111-157.866667 179.143111-335.872C971.093333-102.944 923.477333-144.359111 881.436444-147.772444L881.436444-147.772444zM702.293333 725.415111c0.512 2.787556-82.830222 20.650667-89.543111 22.414222-22.300444-46.250667-46.478222-89.543111-111.957333-89.543111-68.039111 0-91.363556 47.616-111.957333 89.543111C385.479111 752.209778 299.804444 726.325333 299.292444 725.415111 298.723556 679.448889 388.835556 457.639111 388.835556 434.371556c0-26.112-1.649778-47.274667-5.063111-65.422222C385.536 368.266667 386.958222 368.096 388.835556 367.185778c26.112-12.174222 53.475556-20.707556 111.957333-22.414222 58.481778-1.649778 100.807111 16.440889 111.957333 22.414222 3.356444 1.820444 6.599111 2.901333 9.728 3.527111-5.973333 18.830222-9.671111 39.879111-9.728 63.601778C612.750222 456.842667 702.293333 677.628444 702.293333 725.415111L702.293333 725.415111zM702.293333 725.415111"  horiz-adv-x="1024" />

    
    <glyph glyph-name="biao" unicode="&#58932;" d="M514.95006 589.270765 463.758905 589.270765 463.758905 333.314991 514.95006 333.314991 668.523524 333.314991 668.523524 384.506146 514.95006 384.506146ZM873.288143 384.583951c0 142.944404-83.7016 266.334218-204.764619 323.846462l0 85.60497 0 51.191155-307.146109 0 0-51.191155 0-85.60497c-121.0622-57.512244-204.764619-180.902058-204.764619-323.846462 0-142.213031 82.84492-265.076225 202.906294-322.963573l0-86.642651 0-51.191155 0 0 307.146928 0 0 0 1.858325 0L668.524343 60.737489C789.585724 118.249733 873.288143 241.639548 873.288143 384.583951zM412.56775 794.034565l206.622125 0 0-66.518853c-32.985469 10.013987-67.983236 15.404685-104.240634 15.404685-35.575985 0-69.941479-5.185127-102.382309-14.839571L412.566931 794.034565zM617.332369-25.022273l-204.764619 0 0 66.107712c32.440011-9.654443 66.805505-14.839571 102.382309-14.839571s69.941479 5.185127 102.382309 14.839571L617.332369-25.022273zM514.95006 77.437023c-169.632535 0-307.146109 137.514393-307.146109 307.146109s137.514393 307.146109 307.146109 307.146109c169.632535 0 307.146109-137.514393 307.146109-307.146109S684.582595 77.437023 514.95006 77.437023z"  horiz-adv-x="1024" />

    
    <glyph glyph-name="guoji" unicode="&#58917;" d="M512 803.84C276.48 803.84 92.16 619.52 92.16 384S276.48-35.84 512-35.84 931.84 148.48 931.84 384 747.52 803.84 512 803.84zM788.48 622.08c51.2-58.88 79.36-130.56 84.48-212.48l-128 0c-2.56 48.64-17.92 107.52-38.4 168.96C739.84 593.92 768 609.28 788.48 622.08zM706.56 189.44c23.04 58.88 35.84 117.76 38.4 168.96l128 0c-5.12-79.36-33.28-153.6-84.48-212.48C768 158.72 739.84 174.08 706.56 189.44zM640 161.28c-20.48-51.2-48.64-97.28-76.8-138.24-7.68-2.56-15.36-2.56-23.04-2.56l0 161.28C573.44 179.2 606.72 171.52 640 161.28zM750.08 107.52c-33.28-30.72-74.24-51.2-112.64-64 20.48 30.72 38.4 64 51.2 99.84C711.68 130.56 732.16 120.32 750.08 107.52zM540.16 238.08l0 117.76 153.6 0c-2.56-46.08-15.36-97.28-33.28-148.48C616.96 225.28 576 235.52 540.16 238.08zM691.2 412.16l-153.6 0 0 117.76c35.84 2.56 79.36 12.8 120.32 30.72C678.4 506.88 688.64 458.24 691.2 412.16zM688.64 627.2c-15.36 35.84-33.28 69.12-51.2 99.84C678.4 711.68 716.8 691.2 750.08 660.48 732.16 647.68 711.68 637.44 688.64 627.2zM540.16 586.24 540.16 747.52c7.68 0 15.36 0 23.04-2.56 33.28-43.52 58.88-89.6 79.36-138.24C606.72 596.48 570.88 588.8 540.16 586.24zM317.44 189.44c-33.28-15.36-58.88-28.16-81.92-43.52-51.2 58.88-79.36 130.56-84.48 212.48l128 0C281.6 307.2 294.4 248.32 317.44 189.44zM332.8 355.84l153.6 0 0-117.76c-35.84-2.56-79.36-12.8-120.32-30.72C345.6 261.12 335.36 309.76 332.8 355.84zM335.36 140.8c12.8-35.84 30.72-69.12 51.2-99.84-40.96 12.8-79.36 35.84-112.64 64C291.84 120.32 312.32 130.56 335.36 140.8zM483.84 181.76l0-161.28c-7.68 0-15.36 0-23.04 2.56-30.72 40.96-56.32 87.04-76.8 138.24C417.28 171.52 450.56 179.2 483.84 181.76zM151.04 412.16c5.12 79.36 33.28 153.6 84.48 212.48 20.48-15.36 48.64-28.16 81.92-43.52-20.48-58.88-35.84-117.76-38.4-168.96L151.04 412.16zM483.84 529.92l0-117.76-153.6 0c2.56 48.64 15.36 97.28 33.28 148.48C407.04 542.72 448 532.48 483.84 529.92zM273.92 660.48c33.28 28.16 71.68 51.2 112.64 64-20.48-30.72-38.4-64-51.2-99.84C312.32 637.44 291.84 647.68 273.92 660.48zM483.84 747.52l0-161.28c-33.28 2.56-69.12 10.24-102.4 23.04 20.48 46.08 46.08 92.16 79.36 138.24C471.04 744.96 478.72 747.52 483.84 747.52z"  horiz-adv-x="1024" />

    
    <glyph glyph-name="jujia" unicode="&#58919;" d="M944.64 522.24c-20.48 20.48-48.64 28.16-74.24 30.72L870.4 704c0 43.52-33.28 76.8-76.8 76.8L230.4 780.8c-43.52 0-76.8-33.28-76.8-76.8l0-156.16c-35.84-5.12-64-17.92-81.92-40.96C35.84 458.24 51.2 394.24 51.2 391.68L53.76 384 153.6 258.56l0-92.16 0-25.6c0-35.84 23.04-64 56.32-74.24 0 0 0-2.56 0-2.56l0-25.6c0-28.16 23.04-51.2 51.2-51.2s51.2 23.04 51.2 51.2l0 25.6 401.92 0 0-25.6c0-28.16 23.04-51.2 51.2-51.2s51.2 23.04 51.2 51.2l0 25.6c0 0 0 2.56 0 2.56 30.72 10.24 56.32 38.4 56.32 74.24l0 25.6 0 92.16 99.84 125.44 0 5.12C983.04 450.56 972.8 494.08 944.64 522.24zM230.4 729.6l563.2 0c15.36 0 25.6-10.24 25.6-25.6l0-153.6c-2.56 0-5.12 0-5.12 0l-7.68-2.56-253.44-227.84-107.52 0L204.8 535.04 204.8 704C204.8 719.36 215.04 729.6 230.4 729.6zM261.12 38.4l0 25.6 0 0L261.12 38.4zM762.88 38.4l0 25.6 0 0L762.88 38.4zM921.6 407.04 870.4 343.04l0 0-51.2-64 0 0 0-112.64 0-25.6c0-15.36-10.24-25.6-25.6-25.6L230.4 115.2c-15.36 0-25.6 10.24-25.6 25.6l0 25.6 0 112.64-104.96 130.56c-2.56 12.8-5.12 46.08 12.8 66.56 10.24 15.36 30.72 23.04 56.32 23.04L204.8 465.92l0 0 220.16-199.68 148.48 0 258.56 232.96c2.56 0 7.68 0 12.8 0 7.68 0 17.92 0 28.16 0l0 0c15.36-2.56 28.16-5.12 38.4-15.36C924.16 471.04 929.28 445.44 921.6 407.04z"  horiz-adv-x="1024" />

    
    <glyph glyph-name="nanzhuang" unicode="&#58956;" d="M862.8 693.1c-1.1 10.4-8.5 19.1-18.6 21.7l-224.7 59c-8.7 2.4-18-0.2-24.3-6.7l-83.7-85.1-83.7 85.1c-6.3 6.4-15.6 9-24.3 6.7l-224.7-59c-10.1-2.7-17.5-11.3-18.6-21.7l-51.2-490.5c-1.4-13.4 8-25.6 21.4-27.5l108.1-15.9 0-164.8c0-14 11.3-25.2 25.2-25.2l495.9 0c13.9 0 25.2 11.2 25.2 25.2L784.8 159.2l108.1 15.9c13.4 2 22.8 14.1 21.4 27.5L862.8 693.1 862.8 693.1zM784.6 210 784.6 395.7c0 13.9-11.3 25.2-25.2 25.2-13.9 0-25.2-11.3-25.2-25.2l0-214.7 0-161.4-445.5 0L288.7 180.9 288.7 395.7c0 13.9-11.3 25.2-25.2 25.2-13.9 0-25.2-11.3-25.2-25.2L238.3 210l-76.9 11.4 46.9 449.2 193.8 50.9 91.4-92.9c9.5-9.6 26.4-9.6 35.9 0l91.4 92.9 193.8-50.9 46.9-449.2L784.6 210 784.6 210zM572.1 597.9c-3.1 13.5-16.8 22.2-30.2 18.9-13.5-3.1-22-16.6-18.9-30.2l68.1-297.3-79.6-100.8-79.6 100.8 68.1 297.3c3.1 13.6-5.4 27-18.9 30.2-13.5 3.2-27.1-5.4-30.2-18.9l-70.8-309.1c-1.7-7.4 0-15.2 4.8-21.2l106.9-135.3c0.5-0.7 1.4-0.9 1.9-1.5 0.8-0.9 1.3-1.9 2.2-2.7 0.6-0.4 1.3-0.2 1.9-0.6 4.2-2.8 8.7-4.7 13.6-4.7 0 0 0.1 0 0.1 0l0 0 0 0c0 0 0.1 0 0.1 0 4.9 0.1 9.4 1.9 13.6 4.7 0.6 0.4 1.3 0.2 1.9 0.6 0.9 0.8 1.4 1.8 2.2 2.7 0.6 0.6 1.4 0.8 1.9 1.5l106.9 135.3c4.7 6 6.5 13.8 4.8 21.2L572.1 597.9 572.1 597.9z"  horiz-adv-x="1024" />

    
    <glyph glyph-name="meizhuang" unicode="&#59162;" d="M116.609483 497.956481c0.418895 1.117054 0.977422 2.234108 1.256686 3.444249A40.35357 40.35357 0 0 0 151.750136 532.492062c2.839179 0.372351 5.817989 0.511983 8.703711 0.558527h23.085779l0.23272 2.606459v4.700935V870.633569c0 3.025354 0 6.097252 0.605071 9.029519a20.106969 20.106969 0 0 0 19.734617 15.731841c76.564732-0.698159 141.028048-28.903768 192.691788-85.501163A240.492384 240.492384 0 0 0 455.681869 691.206795c3.258074-16.802352 4.654391-33.744335 4.282039-50.872493-0.325807-17.919405-0.093088-35.792267-0.093087-53.665129V532.957501h3.397705c7.912465 0 15.918017 0.279263 23.830482-0.046544 15.731842-0.744703 27.693627-7.912465 35.373372-21.829094 3.351162-6.050708 4.514759-12.753031 4.514759-19.64153V-85.611065c0-9.960397-2.327196-19.083003-8.657167-26.855836a39.562324 39.562324 0 0 0-27.228188-15.080227c-2.746091-0.279263-5.445637-0.465439-8.145184-0.465439H159.616056a42.634222 42.634222 0 0 0-27.693626 9.16915 39.655411 39.655411 0 0 0-14.102805 22.713429c-0.23272 1.117054-0.791246 2.094476-1.210142 3.118442V497.956481z m42.261871-128.880088v-455.66488h326.226266v455.66488H158.82481z m66.837055 164.160371h192.412524v3.956233 104.816885c0 4.514759 0.139632 9.029519 0 13.497734a183.988077 183.988077 0 0 1-8.052096 47.474789C390.985834 764.653086 351.516598 808.590537 293.150535 835.725636c-18.757196 8.750255-38.631445 14.009717-59.110766 16.89544C231.340222 853.039971 228.547587 853.179603 225.661865 853.458866v-320.222102z m259.389211-41.42408a27119.274679 27119.274679 0 0 1-326.27281-0.186175v-81.312211h326.27281V491.859228zM895.52182 102.193613c0-57.342097-0.093088-114.684195 0-172.026292 0.046544-12.38068-2.97881-23.644306-10.239661-33.558159a56.969746 56.969746 0 0 0-41.889519-24.063202c-3.258074-0.325807-6.516147-0.465439-9.681133-0.465439h-197.811618a57.714449 57.714449 0 0 0-42.587678 17.593598 56.1785 56.1785 0 0 0-16.336912 38.631445v2.839179 342.516635c0 12.566856 3.118442 24.202833 10.518923 34.442493 10.379292 14.28898 24.342465 22.341077 41.889519 24.156289 3.071898 0.325807 6.236884 0.465439 9.40187 0.46544h197.439267c14.195893 0 26.995468-4.04932 38.119462-12.985751 11.170538-8.982975 18.152125-20.665496 20.618953-34.814845 0.605071-3.583881 0.511983-7.307394 0.511983-10.984363v-171.747028z m-41.517168 0V272.311604c0 1.396317 0 2.746091-0.093088 4.095864a15.638754 15.638754 0 0 1-10.891275 14.242437 28.391785 28.391785 0 0 1-8.052097 0.930878h-197.113459c-1.396317 0-2.746091 0-4.095864-0.093088a16.104193 16.104193 0 0 1-14.661332-12.892663c-0.325807-1.861756-0.279263-3.723513-0.279263-5.585269V-71.089365a15.731842 15.731842 0 0 1 10.984363-14.894051c2.606459-0.791246 5.585269-0.930878 8.377903-0.930878 65.440738-0.093088 130.974563-0.046544 196.415301-0.046544 1.489405 0 2.97881 0 4.421672 0.093088a16.011105 16.011105 0 0 1 14.894051 15.080227c0.139632 1.396317 0.093088 2.699547 0.093088 4.095864v169.838728z"  horiz-adv-x="1024" />

    
    <glyph glyph-name="lishi" unicode="&#59088;" d="M512 520.704v-170.496h169.984c18.944 0 33.792-15.36 33.792-34.304s-15.36-34.304-33.792-34.304H478.208c-18.944 0-33.792 15.36-33.792 34.304v204.8c0 18.944 15.36 34.304 33.792 34.304s33.792-15.36 33.792-34.304z m0-648.192C230.912-127.488 2.56 101.888 2.56 384.512c0 18.944 15.36 34.304 33.792 34.304 18.944 0 33.792-15.36 33.792-34.304 0-244.736 198.144-443.392 441.856-443.392 243.712 0 441.856 199.168 441.856 443.392 0 244.736-198.144 443.392-441.856 443.392-164.864 0-316.416-92.16-392.192-238.592h52.224c18.944 0 33.792-15.36 33.792-34.304s-15.36-34.304-33.792-34.304H36.352c-18.944 0-33.792 15.36-33.792 34.304V691.2c0 18.944 15.36 34.304 33.792 34.304 18.944 0 33.792-15.36 33.792-34.304v-52.224C160.256 796.672 327.68 896 512 896c281.088 0 509.44-229.376 509.44-512 0-282.112-228.352-511.488-509.44-511.488z"  horiz-adv-x="1024" />

    
    <glyph glyph-name="bianjiedaohang" unicode="&#58959;" d="M115.5 122.6h791c29.4 0 53.3-23.8 53.3-53.3 0-29.5-23.8-53.3-53.3-53.3h-791c-29.4 0-53.3 23.8-53.3 53.3 0.1 29.3 23.9 53.3 53.3 53.3z m0 625.8h791c29.4 0 53.3-23.8 53.3-53.3 0-29.5-23.8-53.3-53.3-53.3h-791c-29.4 0-53.3 23.8-53.3 53.3 0.1 29.5 23.9 53.3 53.3 53.3z m0-312.9h518.6c29.5 0 53.3-23.8 53.3-53.3 0-29.5-23.8-53.3-53.3-53.3H115.5c-29.4 0-53.3 23.8-53.3 53.3 0.1 29.5 23.9 53.3 53.3 53.3z m713 0h77.9c29.5 0 53.3-23.8 53.3-53.3 0-29.5-23.8-53.3-53.3-53.3h-77.9c-29.5 0-53.3 23.8-53.3 53.3 0.1 29.5 23.9 53.3 53.3 53.3z m0 0"  horiz-adv-x="1024" />

    
    <glyph glyph-name="weibiaoti-" unicode="&#58920;" d="M905.846154 502.153846c0 215.236923-176.206769 393.846154-393.846154 393.846154C294.321231 896 118.153846 717.390769 118.153846 502.153846c0-134.892308 163.209846-380.849231 280.379077-543.153231A117.76 117.76 0 0 1 512-128a117.838769 117.838769 0 0 1 113.506462 87.000615C742.596923 121.304615 905.846154 367.261538 905.846154 502.153846zM508.612923 671.389538c87.079385 0 157.656615-69.789538 157.656615-155.884307 0-86.134154-70.577231-155.884308-157.656615-155.884308s-157.656615 69.750154-157.656615 155.884308c0 86.055385 70.577231 155.884308 157.656615 155.884307z"  horiz-adv-x="1024" />

    
    <glyph glyph-name="-" unicode="&#58929;" d="M901.22 103.13a424.16 424.16 0 0 1-224.73 224.72c-0.45 0.23-0.9 0.34-1.34 0.56A278 278 0 0 1 790.6 554.15C790.6 708 665.94 832.67 512.08 832.67S233.56 708 233.56 554.15A278.28 278.28 0 0 1 349 328.29999999999995c-0.45-0.22-0.9-0.34-1.35-0.56A422.12 422.12 0 0 1 89.81-52.08000000000004a9 9 0 0 1 9-9.21h67.38a9 9 0 0 1 9 8.76 337 337 0 0 0 673.84 0 8.89 8.89 0 0 1 9-8.76h67.38a9 9 0 0 1 9 9.21 418.68 418.68 0 0 1-33.19 155.21zM512.08 361a193.24 193.24 0 1 0 136.56 56.6A191.92 191.92 0 0 0 512.08 361z"  horiz-adv-x="1024" />

    
    <glyph glyph-name="bao" unicode="&#58883;" d="M1032.356253-6.372688l-58.26458 442.082503-19.664296 150.031295c-2.913229 24.762447-24.762447 42.970128-49.524893 42.970128h-121.627312c-1.456615 71.374111-31.317212 135.465149-77.928876 182.80512C656.54971 859.584637 590.27375 890.173542 516.714717 890.173542 371.781573 890.173542 253.067491 772.916074 250.154262 629.439545H128.52695c-24.762447 0-45.883357-18.935989-49.524893-42.970128L59.337761 435.709815l-58.26458-442.082503c-4.369844-30.588905 5.098151-61.906117 26.219061-85.211949 20.392603-23.305832 50.253201-36.415363 80.842105-36.415363h817.16074c31.317212 0 60.449502 13.109531 80.842105 36.415363 21.12091 23.305832 30.588905 54.623044 26.219061 85.211949zM516.714717 868.324324c64.819346 0 125.997155-25.490754 172.608819-72.102418 44.426743-44.426743 69.189189-101.963016 71.374111-163.869132H272.00348c5.098151 131.095306 112.887624 235.97155 244.711237 235.97155zM100.851275 582.827881c2.184922 13.837838 13.837838 24.034139 27.675675 24.034139h776.375534c13.837838 0 25.490754-10.196302 27.675675-24.034139l18.935989-144.204837-90.310099-76.472262c-96.136558-81.570413-218.492176-126.725462-344.489332-126.725462-62.634424 0-124.540541 10.924609-183.533428 32.773827-58.992888 21.849218-112.887624 53.16643-160.955903 93.951635L81.915286 438.623044 100.851275 582.827881zM990.114433-77.018492c-16.02276-18.935989-40.056899-29.13229-64.819346-29.13229H108.134347c-24.762447 0-48.068279 10.924609-64.819345 29.13229-16.02276 18.935989-24.034139 43.698435-20.392604 67.732575l55.351352 422.418207 79.385491-67.732574c50.253201-42.241821 106.332859-75.015647 167.510668-97.593173 61.177809-22.577525 125.268848-34.230441 190.816501-34.230441 131.095306 0 258.549075 46.611664 358.327169 131.823614l79.385491 67.732574 55.351351-422.418207c5.098151-24.762447-2.913229-49.524893-18.935988-67.732575z"  horiz-adv-x="1037" />

    
    <glyph glyph-name="shoucang" unicode="&#58882;" d="M707.584 802.816c-77.312 0-148.992-38.912-196.608-102.912-47.104 64-119.296 102.912-196.608 102.912-139.264 0-252.416-123.904-252.416-275.968 0-90.624 40.448-154.624 73.216-205.824 94.72-148.992 333.312-333.824 343.552-341.504 9.728-7.68 20.992-11.264 32.256-11.264s22.528 3.584 32.256 11.264c10.24 7.68 248.32 193.024 343.552 341.504 32.768 51.2 73.216 115.2 73.216 205.824 0 152.064-113.152 275.968-252.416 275.968z m114.176-480.256c-87.552-122.88-272.896-263.168-282.112-269.824-8.704-6.656-18.944-10.24-28.672-10.24-10.24 0-19.968 3.072-28.672 10.24-9.216 6.656-190.976 148.48-282.112 274.944-29.184 46.08-75.776 103.424-75.776 184.32 0 136.192 75.776 231.936 200.192 231.936 69.12 0 144.384-66.048 186.368-123.392 42.496 57.344 117.248 123.392 186.368 123.392 124.928 0 205.824-95.744 205.824-231.936 0-80.896-51.712-143.872-81.408-189.44z"  horiz-adv-x="1024" />

    
    <glyph glyph-name="shoucang2" unicode="&#58884;" d="M773.458-109.42999999999995c-14.403 0-30.592 4.132-45.599 11.638L513.567 9.389999999999986 297.948-97.61800000000005c-13.655-7.27-29.286-11.09-45.225-11.09a96.164 96.164 0 0 0-57.549 18.842c-30.177 22.64-45.64 61.85-38.502 97.561l44.099 228.772L31.744 394.004a104.059 104.059 0 0 0-26.281 100.66l0.338 1.162c12.288 36.828 42.772 62.633 79.734 67.584l234.839 42.7L425.779 820.189c16.932 33.895 51.37 55.675 87.788 55.675 37.99 0 73.318-22.6 88.13-56.29l105.068-213.4L941.64 565.11a95.672 95.672 0 0 0 78.264-68.373 98.97 98.97 0 0 0-24.474-101.002l-0.578-0.579-168.55-158.72L868.9 7.2549999999999955c6.86-36.649-7.716-73.672-38.062-96.742a90.409 90.409 0 0 0-57.38-19.943zM513.644 90.12699999999995L738.62-22.389999999999986c6.605-3.328 14.219-5.422 19.43-5.422 8.019 0 15.468 2.468 20.937 7.03l1.018 0.84c12.785 9.594 19.016 24.837 16.22 39.767l-45.276 243.89 179.078 168.638c10.987 11.147 14.75 27.11 9.876 41.79l-0.492 1.54a36.884 36.884 0 0 1-30.607 26.686l-1.019 0.159L660 545.8430000000001 548.485 772.357c-5.417 12.657-20.106 21.842-34.944 21.842-14.577 0-28.518-9.124-35.584-23.22L367.16 545.947l-249.088-45.251c-15.13-1.9-26.88-11.945-32.312-27.617-3.85-14.32 0.712-31.57 11.238-42.332L276.28 263.67999999999995l-47.052-244.02c-2.827-14.11 3.855-30.35 16.215-39.623 6.195-4.66 14.223-7.23 22.645-7.23 6.492 0 12.713 1.511 18.079 4.399l0.773 0.45 226.704 112.471z"  horiz-adv-x="1024" />

    
    <glyph glyph-name="gouwudai" unicode="&#59030;" d="M512.106667 853.333333a149.44 149.44 0 0 0 149.418666-149.44V682.666667h131.2a42.666667 42.666667 0 0 0 42.538667-39.125334l56.874667-682.666666A42.666667 42.666667 0 0 0 849.621333-85.333333H174.378667a42.666667 42.666667 0 0 0-42.517334 46.208l56.874667 682.666666A42.666667 42.666667 0 0 0 231.253333 682.666667H362.666667v21.226666a149.44 149.44 0 0 0 144.298666 149.333334l5.12 0.106666zM362.666667 618.666667h-117.333334L192-21.333333h640l-53.333333 640h-117.141334v-21.013334a32 32 0 0 0-28.906666-31.872l-3.093334-0.128a32 32 0 0 0-32 32V618.666667h-170.88l0.021334-21.013334a32 32 0 0 0-28.928-31.872l-3.072-0.128a32 32 0 0 0-32 32V618.666667z m32-85.333334a32 32 0 0 0 32-32v-21.333333a32 32 0 0 0-64 0v21.333333a32 32 0 0 0 32 32z m234.666666 0a32 32 0 0 0 32-32v-21.333333a32 32 0 0 0-64 0v21.333333a32 32 0 0 0 32 32zM512.106667 789.333333A85.44 85.44 0 0 1 426.666667 703.893333V682.666667h170.858666v21.226666a85.44 85.44 0 0 1-81.152 85.333334l-4.266666 0.106666z"  horiz-adv-x="1024" />

    
    <glyph glyph-name="xiangyou" unicode="&#58927;" d="M512-64C265.6-64 64 137.6 64 384S265.6 832 512 832s448-201.6 448-448-201.6-448-448-448z m0 852c-222.2 0-404-181.8-404-404s181.8-404 404-404 404 181.8 404 404-181.8 404-404 404zM652.7 399.6L457.6 594.7c-8.6 8.6-22.5 8.6-31.1 0s-8.6-22.5 0-31.1L606 384 426.4 204.4c-8.6-8.6-8.6-22.5 0-31.1 8.6-8.6 22.5-8.6 31.1 0l195.2 195.2c8.6 8.5 8.6 22.5 0 31.1z"  horiz-adv-x="1024" />

    
    <glyph glyph-name="up2" unicode="&#58930;" d="M935.674 210.418L540.081 609.605c-14.055 14.175-36.936 14.272-51.11 0.22000001l-0.008-0.00700001c-0.145-0.145-0.184-0.33-0.32-0.464-0.61-0.574-1.408-0.719-2.02000001-1.34L87.475 212.44899999999996c-14.188-14.069-14.285-36.974-0.219-51.161 14.069-14.189 36.974-14.286 51.162-0.22l375.566 372.197 370.389-373.78c13.84-14.392 36.723-14.83799999 51.113-1 14.392 13.84 14.838 36.724 0.999 51.114a25.475 25.475 0 0 1-0.81 0.819z"  horiz-adv-x="1024" />

    
    <glyph glyph-name="shoucang1" unicode="&#58885;" d="M709.09472656 799.40361328c-77.43515625 0-149.22333984-38.97421875-196.91894531-103.07197265C465.00224609 760.43378906 392.69638672 799.40361328 315.26035156 799.40361328 175.78232422 799.40361328 62.45 675.30732422 62.45 523.00517578c0-90.76464844 40.50878906-154.86767578 73.32714844-206.14482422 94.86914063-149.22949219 333.83759766-334.34560547 344.08828125-342.04042968a51.68671875 51.68671875 0 0 1 32.30595703-11.28164063c11.28076172 0 22.56240234 3.59033203 32.30507812 11.28164063 10.26035156 7.69482422 248.71025391 193.32861328 344.09179688 342.04042968 32.82363281 51.28154297 73.33242187 115.37929688 73.33242187 206.14482422 0.00439453 152.30214844-113.32353516 276.3984375-252.80507812 276.3984375z m114.35009766-481.00429687c-87.68232422-123.07060547-273.31611328-263.57871094-282.55078125-270.24345703-8.71611328-6.66914062-18.97558594-10.25947266-28.71826172-10.25947266-10.25595703 0-19.99863281 3.07792969-28.71474609 10.25947266-9.23378906 6.66035156-191.27636719 148.70742187-282.55517578 275.36835937C171.67871094 369.67646484 125.01318359 427.11035156 125.01318359 508.12792969c0 136.40888672 75.89355469 232.29931641 200.50664063 232.2993164 69.22792969 0 144.61259766-66.15 186.65595703-123.58300781 42.56542969 57.43300781 117.43154297 123.58300781 186.65947266 123.58300781 125.12285156 0 206.15009766-95.89042969 206.15009765-232.2993164 0-81.01318359-51.80009766-144.08964844-81.54052734-189.72949219z"  horiz-adv-x="1024" />

    
    <glyph glyph-name="xiangxia1" unicode="&#58972;" d="M898.54 615.46L512 228.91 125.46 615.46a36 36 0 0 1-50.92-50.92l412-412A35.92 35.92 0 0 1 512 142a35.9 35.9 0 0 1 18 4.84l1.16 0.71a36 36 0 0 1 6.27 5l412 412a36 36 0 0 1-50.91 50.92z"  horiz-adv-x="1024" />

    
    <glyph glyph-name="yingtao" unicode="&#59312;" d="M269.7 209.4c-35.6 23.2-38 62.6-36.2 84.3 0.7 8.9-5 17-13.7 19.2l-3.4 0.9c-10.9 2.8-21.6-4.9-22.6-16.1-0.9-10.4-1-23.8 1.2-38.3 5.7-36.5 24.1-65.1 53.5-83.9 9.4-6 21.8-2.1 26.3 8.1l1.5 3.4c3.6 8 0.8 17.5-6.6 22.4zM907 374.6c-30.4 50.8-71.8 82.9-113.6 87.9-22.6 2.7-39.7-2.9-54.8-7.8-7.4-2.4-14.5-4.8-22.8-6.3-2.7 20.9-5.7 49.1-6.9 79.4-2.1 52.7 1.7 95.7 10.7 125.6 13.2-7.8 28.6-12.2 45-12.2 49.1 0 89.1 40 89.1 89.1 0 49.1-40 89.1-89.1 89.1-34 0-63.7-19.2-78.7-47.3-73.1 1.3-138-7.7-193.1-26.7-53.5-18.5-98.5-46.6-133.8-83.7-62.5-65.6-81.5-144.6-86.8-196.3-0.3 0.1-0.7 0.3-1 0.4-10.4 4.5-23.4 10-41.2 10.2h-0.7c-30.4 0-62.8-15.8-91.3-44.7-41.5-42-66.6-102.8-65.6-158.6 1-53 25-106.6 65.7-146.9 42.6-42.2 97.9-65.4 155.8-65.4 32.8 0 64.5 7.4 94.1 22 14 6.9 27.2 15.2 39.5 24.9 13.3-25.2 30.7-48.9 51.7-69.7 52.9-52.4 121.6-81.2 193.4-81.2 72.1 0 140.8 29.5 193.4 83.1 48.8 49.6 78.5 115 81.5 179.3 2.7 51.6-12.1 108.4-40.5 155.8zM764.7 759.4c16 0 29.1-13 29.1-29.1 0-16-13-29.1-29.1-29.1s-29.1 13-29.1 29.1 13 29.1 29.1 29.1z m-354.9-146c54.9 57.7 140.2 87.4 253.9 88.8-19.6-40.9-27.9-100.5-24.7-178 1-24.8 3.1-48.1 5.3-67.6-1.6 0.7-3.1 1.3-4.7 2-13.2 5.7-28.3 12.1-49.1 12.3h-0.9c-36.4 0-75.5-19.3-110.3-54.5-1.8-1.8-3.5-3.6-5.2-5.5-23.6 33.3-54.1 54.8-85.3 58.6-19.3 2.3-34.1-2.5-46-6.4-0.1 0-0.3-0.1-0.4-0.1 4.8 40.6 20.3 100.9 67.4 150.4zM294.1 130.3c-87.7 0-150.2 75.7-151.6 143.7-0.7 37.1 17.1 79.5 45.3 108 17.4 17.6 32.8 23.9 41.5 23.9h0.1c3.5 0 6.3-1.1 14.2-4.5 12.5-5.3 29.6-12.7 57.8-14.2 30-1.6 49.1 4.7 63 9.3 9 2.9 12.1 3.9 15.7 3.4 13.3-1.6 34.4-20.2 49.5-51.8-21.2-40.6-32.8-85.8-32-128.6 0.3-13.7 1.8-27.4 4.5-41-29.1-31.1-67.3-48.2-108-48.2z m583.8 91.6c-4.4-92.5-89.6-195.6-205-195.6-118.6 0-203.2 102.6-205 194.7-1 50.3 23.1 107.7 61.2 146.2 20.9 21.1 43.5 33.7 60.5 33.7h0.3c6.6-0.1 11.5-2.1 22.2-6.6 15.4-6.6 36.5-15.6 71-17.4 36.8-1.9 60.3 5.8 77.4 11.4 12 4 17.6 5.7 24.5 4.8 19.6-2.4 43.3-23.2 61.9-54.4 21.2-35.3 32.7-79 31-116.8zM600.3 130.8c-27.6 16.9-44.4 42.5-50 76.4-2.7 16.3-2.2 31.4-1.2 42.4 1 9.9-5.4 18.9-15.1 21.3l-1.7 0.4 1.8-0.5c-11.8 3-23.6-5.2-24.8-17.3-1.3-13.4-1.8-31.6 1.3-51.3 7.3-46.4 31-82.6 69.1-105.8 10.3-6.3 23.8-1.9 28.6 9.1 4.1 9.3 0.6 20-8 25.3z"  horiz-adv-x="1024" />

    
    <glyph glyph-name="bi" unicode="&#58980;" d="M986.697143 611.766857L740.132571 860.16a123.026286 123.026286 0 0 1-172.251428 0L93.110857 386.925714c-18.651429-14.043429-27.940571-32.841143-32.621714-56.32L0-16.091429c0-28.16 9.289143-61.001143 27.940571-79.725714 18.578286-18.724571 41.837714-28.16 69.778286-28.16h13.970286l344.502857 60.928c23.186286 4.754286 41.837714 14.116571 55.808 32.841143l474.697143 473.380571c23.332571 23.405714 37.302857 51.565714 37.302857 84.333715 0 32.841143-13.970286 60.928-37.302857 84.333714zM446.902857 30.72l-349.110857-60.928 60.562286 346.843429 349.037714 346.770285 288.621714-285.842285-349.110857-346.843429z m474.697143 478.061714l-65.097143-70.290285-288.621714 285.842285 65.170286 65.609143c9.362286 9.362286 27.940571 9.362286 41.910857 0L921.6 541.476571a35.620571 35.620571 0 0 0 9.289143-18.724571c0-4.681143-4.681143-9.362286-9.289143-14.043429z"  horiz-adv-x="1024" />

    
    <glyph glyph-name="fangdajing" unicode="&#58886;" d="M936.83333333 42.200000000000045L772.53333333 206.5c52.5 65.9 83.9 149.3 83.9 240.1 0 212.9-172.6 385.6-385.6 385.6S85.23333333 659.5 85.23333333 446.6 257.83333333 61 470.83333333 61c90.9 0 174.5 31.5 240.4 84.1l164.3-164.3c16.7-16.7 44-16.7 60.7 0l0.6 0.6c16.7 16.8 16.7 44.1 0 60.8zM172.03333333 446.6c0 165 133.8 298.8 298.8 298.8s298.8-133.8 298.8-298.8-133.8-298.9-298.8-298.9-298.8 133.8-298.8 298.9z"  horiz-adv-x="1024" />

    
    <glyph glyph-name="xiangxia-copy" unicode="&#59313;" d="M680.98116507 431.19933567q13.68841841 0 22.1846781-5.19215867t11.32834625-13.68841841 0-19.11658432-12.27237512-21.00464203q-38.23316865-42.48129849-73.63425068-83.07453924t-68.44209201-75.99432283q-8.96827413-9.44028854-21.00464202-14.63244727t-24.78075745-5.42816592-24.54475025 4.01212264-19.82460594 13.21640397q-18.40856266 20.29662038-38.23316863 41.53726962l-40.59324077 42.4812985q-19.82460594 21.24064925-39.4132047 41.77327682t-36.58111813 39.88521914q-8.02424527 8.96827413-10.38431741 18.64456988t0.47201442 17.70054103 10.85633182 13.21640398 20.76863483 5.19215869q16.52050497 0 45.54939225 0.23600722t63.48594052 0.2360072l70.80216413 0 69.38612085 0 58.05777458 0 36.81712536 0z"  horiz-adv-x="1024" />

    


  </font>
</defs>
</svg>
